<svg width="680" height="210" viewBox="0 0 680 210" fill="none" xmlns="http://www.w3.org/2000/svg">
  <path d="M368 210L313.207 154.691L264 105H368V210Z" fill="#05C793"/>
  <path d="M264 0L318.793 55.3086L368 105H264V0Z" fill="#06BB8B"/>
  <path d="M159 105L214.309 50.2066L264 1V105H159Z" fill="#03A77B"/>
  <path d="M264 105L208.691 160.32L159 210V105H264Z" fill="#06BB8B"/>
  <path d="M0 187.79V33.0947H37.7543V154.421H106.635V187.79H0ZM486.964 190C475.334 190 464.593 188.084 454.731 184.255C445.016 180.275 436.552 174.751 429.342 167.681C422.275 160.459 416.755 151.991 412.784 142.266C408.955 132.395 407.045 121.639 407.045 110.002C407.045 98.5079 409.028 87.9028 413.004 78.1783C417.126 68.4537 422.865 59.9808 430.226 52.764C437.582 45.5429 446.193 39.9447 456.055 35.9694C466.063 31.9898 476.882 30 488.507 30C495.868 30 503.082 30.9582 510.145 32.8746C517.208 34.791 523.758 37.6614 529.795 41.4942C535.974 45.176 541.274 49.6693 545.689 54.974L522.508 81.273C517.946 76.2618 512.793 72.3599 507.053 69.5586C501.461 66.7574 495.204 65.3589 488.287 65.3589C482.402 65.3589 476.809 66.3905 471.509 68.4537C466.357 70.5169 461.868 73.5383 458.043 77.5135C454.214 81.4932 451.2 86.2065 448.992 91.658C446.784 97.1094 445.68 103.299 445.68 110.222C445.68 116.999 446.711 123.188 448.768 128.787C450.976 134.238 454.067 138.951 458.043 142.927C462.165 146.76 467.02 149.708 472.613 151.766C478.352 153.83 484.683 154.861 491.599 154.861C496.161 154.861 500.503 154.274 504.626 153.096C508.895 151.766 512.866 149.928 516.548 147.571C520.227 145.21 523.392 142.56 526.039 139.612L544.365 168.785C540.834 172.761 535.974 176.374 529.795 179.615C523.758 182.857 516.988 185.433 509.481 187.35C502.125 189.115 494.618 190 486.964 190ZM569.832 187.79V33.0947H677.572V65.3589H606.704V155.526H680V187.79H569.832ZM587.718 124.587V93.6478H667.857V124.587H587.718Z" fill="url(#paint0_linear_112_50)" fill-opacity="0.2"/>
  <defs>
    <linearGradient id="paint0_linear_112_50" x1="-19.2075" y1="243.038" x2="693.322" y2="-32.7301" gradientUnits="userSpaceOnUse">
      <stop stop-color="#06BB8B"/>
      <stop offset="1"/>
    </linearGradient>
  </defs>
</svg>
