<svg width="322" height="100" viewBox="0 0 322 100" fill="none" xmlns="http://www.w3.org/2000/svg">
  <path d="M174.259 100L148.312 73.6626L125.012 50H174.259V100Z" fill="#05C793"/>
  <path d="M125.012 0L150.958 26.3374L174.259 50H125.012V0Z" fill="#06BB8B"/>
  <path d="M75.291 49.9999L101.481 23.9078L125.012 0.476074V49.9999H75.291Z" fill="#03A77B"/>
  <path d="M125.012 50L98.8213 76.343L75.291 100V50H125.012Z" fill="#06BB8B"/>
  <path d="M0 89.4238V15.7593H17.8778V73.5337H50.4946V89.4238H0ZM230.592 90.4761C225.085 90.4761 219.998 89.5636 215.329 87.7404C210.728 85.8454 206.72 83.2145 203.306 79.8478C199.959 76.4092 197.346 72.3765 195.465 67.7458C193.652 63.0452 192.748 57.9232 192.748 52.3819C192.748 46.9085 193.687 41.8584 195.569 37.2277C197.521 32.5969 200.239 28.5622 203.725 25.1257C207.208 21.687 211.286 19.0212 215.955 17.1282C220.695 15.2332 225.818 14.2856 231.323 14.2856C234.808 14.2856 238.224 14.7419 241.569 15.6545C244.913 16.5671 248.015 17.9339 250.873 19.7591C253.799 21.5123 256.309 23.652 258.4 26.178L247.423 38.7014C245.262 36.3151 242.822 34.457 240.105 33.1231C237.456 31.7892 234.494 31.1232 231.218 31.1232C228.431 31.1232 225.783 31.6145 223.274 32.5969C220.834 33.5794 218.708 35.0181 216.897 36.9111C215.084 38.8062 213.656 41.0507 212.611 43.6466C211.565 46.2425 211.043 49.1899 211.043 52.4867C211.043 55.7137 211.531 58.6611 212.505 61.3269C213.55 63.9228 215.014 66.1673 216.897 68.0603C218.849 69.8854 221.148 71.2893 223.796 72.2697C226.514 73.2521 229.511 73.7434 232.787 73.7434C234.947 73.7434 237.003 73.4638 238.955 72.9027C240.977 72.2697 242.857 71.3941 244.601 70.2718C246.343 69.1475 247.841 67.8856 249.095 66.4817L257.773 80.374C256.101 82.267 253.799 83.9873 250.873 85.5309C248.015 87.0745 244.809 88.3015 241.254 89.2141C237.771 90.0548 234.216 90.4761 230.592 90.4761ZM269.832 89.4238V15.7593H320.85V31.1232H287.292V74.0599H322V89.4238H269.832ZM278.302 59.327V44.5941H316.25V59.327H278.302Z" fill="white"/>
</svg>
